<?xml version="1.0" encoding="UTF-8"?>
<svg version="1.1" xmlns="http://www.w3.org/2000/svg" width="200" height="200">
<path d="M0 0 C4.17299566 1.39847704 6.88009569 3.36033171 10.125 6.3125 C11.39730469 7.45138672 11.39730469 7.45138672 12.6953125 8.61328125 C17.00590652 13.07730319 18.36993168 16.40300755 18.51171875 22.61328125 C18.54716797 23.86044922 18.58261719 25.10761719 18.61914062 26.39257812 C18.64169922 27.68615234 18.66425781 28.97972656 18.6875 30.3125 C18.72166016 31.62541016 18.75582031 32.93832031 18.79101562 34.29101562 C18.87339272 37.52725851 18.94258016 40.76323385 19 44 C20.37260986 43.33967773 20.37260986 43.33967773 21.77294922 42.66601562 C33.10978269 37.25233028 42.33879926 34.71732934 55 36 C58.9854494 37.59137968 60.60207208 38.40310812 63 42 C64.88717523 51.43587613 60.89463645 59.2220726 56 67 C46.36507176 81.25558655 33.38664113 96.40890591 19 106 C18.57374166 108.05894939 18.57374166 108.05894939 18.6640625 110.4375 C18.65064819 111.77264648 18.65064819 111.77264648 18.63696289 113.13476562 C18.63301514 114.08029297 18.62906738 115.02582031 18.625 116 C18.38944594 124.14402548 17.93987018 130.26788667 13 137 C12.62601074 137.54156738 12.25202148 138.08313477 11.86669922 138.64111328 C10.60287466 140.46773859 9.31009025 142.26879985 8 144.0625 C7.58500244 144.63613281 7.17000488 145.20976562 6.74243164 145.80078125 C3.79475198 149.61903716 3.03452996 149.99309401 -2 151 C-2.33 141.76 -2.66 132.52 -3 123 C-4.98 124.485 -4.98 124.485 -7 126 C-7.66 126 -8.32 126 -9 126 C-8.9685791 127.61841797 -8.9685791 127.61841797 -8.93652344 129.26953125 C-8.86369576 133.30243468 -8.81804616 137.3352809 -8.78027344 141.36865234 C-8.76025478 143.10866089 -8.73303114 144.84860299 -8.69824219 146.58837891 C-8.64929048 149.10075346 -8.62693413 151.61223275 -8.609375 154.125 C-8.58872986 154.89303955 -8.56808472 155.6610791 -8.54681396 156.45239258 C-8.54302754 165.72862492 -13.62437866 172.31476356 -19 179.5 C-19.52078125 180.22703125 -20.0415625 180.9540625 -20.578125 181.703125 C-21.08859375 182.38890625 -21.5990625 183.0746875 -22.125 183.78125 C-22.58132812 184.40064453 -23.03765625 185.02003906 -23.5078125 185.65820312 C-25 187 -25 187 -29 187 C-29.33 171.49 -29.66 155.98 -30 140 C-32.97 140.99 -32.97 140.99 -36 142 C-35.99476318 143.02472412 -35.98952637 144.04944824 -35.98413086 145.10522461 C-35.96608031 148.89395276 -35.9545678 152.68267709 -35.94506836 156.47143555 C-35.94002826 158.11369464 -35.93319622 159.75594923 -35.92456055 161.39819336 C-35.91248074 163.75375479 -35.90676861 166.10925709 -35.90234375 168.46484375 C-35.89718246 169.20339096 -35.89202118 169.94193817 -35.88670349 170.7028656 C-35.8865075 172.46898088 -35.93805281 174.23497146 -36 176 C-37 177 -37 177 -39.17578125 177.390625 C-43.21635399 176.83176293 -45.37083228 174.4865894 -48.1875 171.75 C-48.72052734 171.25886719 -49.25355469 170.76773438 -49.80273438 170.26171875 C-53.53348405 166.74214359 -55.83466261 164.36763149 -56.1953125 159.203125 C-56.17210938 158.22859375 -56.14890625 157.2540625 -56.125 156.25 C-56.10695313 155.26515625 -56.08890625 154.2803125 -56.0703125 153.265625 C-56.04710938 152.51796875 -56.02390625 151.7703125 -56 151 C-56.64324219 151.2165625 -57.28648438 151.433125 -57.94921875 151.65625 C-66.44778967 154.2749252 -75.21505997 155.75447801 -83.75 152.625 C-86 151 -86 151 -87 149 C-88.9696739 134.8746243 -80.05670213 122.76841551 -72 112 C-62.82111591 100.30333945 -62.82111591 100.30333945 -58.87646484 97.48022461 C-55.87950618 93.518983 -56.4755715 89.44121889 -56.53125 84.609375 C-56.52420044 83.59079407 -56.51715088 82.57221313 -56.5098877 81.52276611 C-56.48041127 77.16983016 -56.49698626 72.81734118 -56.50927734 68.46435547 C-56.51166735 65.28325957 -56.49068322 62.10288159 -56.46875 58.921875 C-56.48006958 57.94764587 -56.49138916 56.97341675 -56.50305176 55.96966553 C-56.43284223 46.40475934 -52.67471763 40.39036223 -46.8125 33.125 C-43.61578159 29.25497139 -43.61578159 29.25497139 -41 25 C-39.35 25.33 -37.7 25.66 -36 26 C-35.81464948 37.51752777 -35.67249825 49.03470093 -35.58550262 60.55341625 C-35.5437485 65.90211341 -35.48711647 71.24979043 -35.39648438 76.59790039 C-35.3095658 81.75917389 -35.26172756 86.91946631 -35.24098206 92.08141518 C-35.22619857 94.05073815 -35.19732822 96.0200073 -35.15415955 97.98891258 C-35.09607266 100.74793881 -35.08808631 103.50291198 -35.09179688 106.26245117 C-35.04865356 107.4838102 -35.04865356 107.4838102 -35.00463867 108.72984314 C-35.0387796 111.07600002 -35.15181126 112.80906173 -36 115 C-38.42438927 117.22085191 -41.03980509 118.60791155 -44 120 C-44.95648438 120.52207031 -45.91296875 121.04414063 -46.8984375 121.58203125 C-47.71570313 121.98808594 -48.53296875 122.39414063 -49.375 122.8125 C-50.62410156 123.44091797 -50.62410156 123.44091797 -51.8984375 124.08203125 C-54 125 -54 125 -56 125 C-56.33 118.4 -56.66 111.8 -57 105 C-69.21368369 117.66960686 -69.21368369 117.66960686 -74 134 C-68.71405743 136.64297128 -63.11962753 134.93550752 -57.8125 133.1875 C-25.60069341 120.90158659 19.83262034 92.65926195 35 60 C36.21907074 55.86769526 36.21907074 55.86769526 35 52 C30.46017763 50.77046478 27.68631373 50.91029098 23.25 52.48828125 C22.45078125 52.76841064 21.6515625 53.04854004 20.828125 53.3371582 C20.22484375 53.555896 19.6215625 53.77463379 19 54 C19.10054687 55.84851563 19.10054687 55.84851563 19.203125 57.734375 C19.52102154 72.48895359 19.52102154 72.48895359 13.93066406 78.38378906 C11.88275997 80.27102476 9.80472727 82.07136144 7.59619141 83.76855469 C5.919381 85.06219673 4.33022069 86.43298584 2.73046875 87.8203125 C0 90 0 90 -2 90 C-2.04626844 78.56078364 -2.08184119 67.12158941 -2.10362434 55.68229866 C-2.11407729 50.37101062 -2.12826397 45.05978644 -2.15087891 39.74853516 C-2.17255352 34.62627405 -2.18455723 29.5040745 -2.18975449 24.38177109 C-2.19345994 22.4240713 -2.20069541 20.46637502 -2.21146011 18.50870132 C-2.22590357 15.77411779 -2.22798096 13.0397911 -2.22705078 10.30517578 C-2.23424133 9.48950134 -2.24143188 8.6738269 -2.24884033 7.83343506 C-2.22810432 2.22810432 -2.22810432 2.22810432 0 0 Z " fill="#000000" transform="translate(112,12)"/>
<path d="M0 0 C1.16015625 0.08495728 1.16015625 0.08495728 2.34375 0.17163086 C2.62467049 14.2274304 2.83516835 28.28279192 2.96549606 42.34082699 C3.02805724 48.86916056 3.11286877 55.39560522 3.24902344 61.92285156 C3.37966409 68.22538789 3.45121135 74.52611091 3.48227692 80.82989693 C3.50440615 83.23145662 3.54762388 85.63291981 3.61251068 88.03370476 C4.12568747 107.81238812 4.12568747 107.81238812 -0.12634277 112.52297974 C-3.21935591 114.89651842 -6.13650687 116.51076065 -9.65625 118.17163086 C-12.35612535 119.78674673 -15.00924206 121.47149326 -17.65625 123.17163086 C-17.77227566 110.28878368 -17.86103269 97.40606152 -17.91531086 84.52279758 C-17.94136626 78.54007529 -17.97669103 72.55771138 -18.03344727 66.57519531 C-18.08791046 60.79800345 -18.11770105 55.02115558 -18.13063622 49.24372673 C-18.13985032 47.04336065 -18.15784343 44.84301267 -18.18490028 42.64279366 C-18.2213799 39.55246936 -18.22618733 36.46355302 -18.22387695 33.37304688 C-18.24185333 32.47033051 -18.25982971 31.56761414 -18.27835083 30.63754272 C-18.22484646 23.99135906 -16.28938084 19.67124224 -12.65625 14.17163086 C-12.2154778 13.47422067 -11.7747056 12.77681047 -11.32057667 12.05826664 C-10.142486 10.20861455 -8.90941337 8.40859514 -7.65625 6.60913086 C-7.24375 5.98200195 -6.83125 5.35487305 -6.40625 4.70874023 C-3.26722676 0.21110849 -3.26722676 0.21110849 0 0 Z " fill="#000000" transform="translate(100.65625,-0.171630859375)"/>
</svg>
